<svg width="21" height="21" viewBox="0 0 21 21" fill="none" xmlns="http://www.w3.org/2000/svg">
<circle cx="10.5" cy="10.5" r="10.5" fill="#E8032A"/>
<path d="M12.9017 15.9792H9.09832C6.23416 15.9792 5.00916 14.7542 5.00916 11.89V11.8142C5.00916 9.22416 6.02999 7.97583 8.31666 7.75999C8.54999 7.74249 8.77166 7.91749 8.79499 8.15666C8.81832 8.39583 8.64332 8.61166 8.39832 8.63499C6.56666 8.80416 5.88416 9.66749 5.88416 11.82V11.8958C5.88416 14.27 6.72416 15.11 9.09832 15.11H12.9017C15.2758 15.11 16.1158 14.27 16.1158 11.8958V11.82C16.1158 9.65583 15.4217 8.79249 13.555 8.63499C13.3158 8.61166 13.135 8.40166 13.1583 8.16249C13.1817 7.92333 13.3858 7.74249 13.6308 7.76583C15.9525 7.96416 16.9908 9.21833 16.9908 11.8258V11.9017C16.9908 14.7542 15.7658 15.9792 12.9017 15.9792Z" fill="white"/>
<path d="M11 12.1176C10.7608 12.1176 10.5625 11.9192 10.5625 11.6801V4.16675C10.5625 3.92758 10.7608 3.72925 11 3.72925C11.2392 3.72925 11.4375 3.92758 11.4375 4.16675V11.6801C11.4375 11.9251 11.2392 12.1176 11 12.1176Z" fill="white"/>
<path d="M10.9999 12.7708C10.8891 12.7708 10.7783 12.73 10.6908 12.6425L8.73662 10.6883C8.56745 10.5192 8.56745 10.2392 8.73662 10.07C8.90578 9.90082 9.18578 9.90082 9.35495 10.07L10.9999 11.715L12.6449 10.07C12.8141 9.90082 13.0941 9.90082 13.2633 10.07C13.4324 10.2392 13.4324 10.5192 13.2633 10.6883L11.3091 12.6425C11.2216 12.73 11.1108 12.7708 10.9999 12.7708Z" fill="white"/>
</svg>
