<svg width="17" height="17" viewBox="0 0 17 17" fill="none" xmlns="http://www.w3.org/2000/svg">
<path d="M10.9268 15.5367H2.04878C1.39317 15.5367 0.853661 14.9972 0.853661 14.3416V5.46352C0.853661 2.44498 2.44488 0.85376 5.46342 0.85376H10.9268C13.9454 0.85376 15.5366 2.44498 15.5366 5.46352V10.9269C15.5366 13.9455 13.9454 15.5367 10.9268 15.5367ZM5.46342 1.87815C3.01854 1.87815 1.87805 3.01864 1.87805 5.46352V14.3416C1.87805 14.4372 1.95317 14.5123 2.04878 14.5123H10.9268C13.3717 14.5123 14.5122 13.3718 14.5122 10.9269V5.46352C14.5122 3.01864 13.3717 1.87815 10.9268 1.87815H5.46342Z" fill="white"/>
<path d="M5.4291 12.1219C5.10812 12.1219 4.81446 12.0058 4.59592 11.7941C4.33641 11.5345 4.2203 11.1658 4.28176 10.7697L4.47298 9.41747C4.51396 9.12381 4.69836 8.7482 4.91006 8.53649L8.45446 4.9921C9.67007 3.77649 10.7286 4.32283 11.3979 4.9921C11.9237 5.51795 12.1628 6.07112 12.1081 6.6243C12.0671 7.07503 11.8281 7.49844 11.3979 7.93551L7.85348 11.4799C7.64177 11.6916 7.27298 11.876 6.9725 11.9238L5.62031 12.115C5.55885 12.115 5.49056 12.1219 5.4291 12.1219ZM9.92274 5.29259C9.67006 5.29259 9.44471 5.45649 9.18519 5.70917L5.6408 9.25356C5.58617 9.3082 5.50421 9.47893 5.49056 9.55405L5.29934 10.9062C5.29251 10.9745 5.29932 11.036 5.32664 11.0633C5.35396 11.0906 5.41543 11.0975 5.48372 11.0906L6.83592 10.8994C6.91787 10.8858 7.08178 10.8038 7.13641 10.7492L10.6808 7.20478C10.9403 6.94527 11.0769 6.7199 11.0974 6.51503C11.1179 6.28283 10.9813 6.00966 10.6808 5.70917C10.3803 5.42234 10.1413 5.29259 9.92274 5.29259Z" fill="white"/>
<path d="M10.5306 8.59128C10.4828 8.59128 10.435 8.58445 10.394 8.57079C9.15792 8.2225 8.16768 7.23909 7.81939 5.99616C7.74427 5.72299 7.90133 5.44299 8.1745 5.36104C8.44767 5.28592 8.72768 5.44299 8.80281 5.71616C9.05549 6.61079 9.77255 7.32787 10.6672 7.58055C10.9404 7.65567 11.0974 7.9425 11.0223 8.21567C10.9609 8.44104 10.756 8.59128 10.5306 8.59128Z" fill="white"/>
</svg>
