<svg width="6" height="6" viewBox="0 0 6 6" fill="none" xmlns="http://www.w3.org/2000/svg">
<path d="M3.00499 0.727539C2.17749 0.727539 1.50499 1.40004 1.50499 2.22754V2.95004C1.50499 3.10254 1.43999 3.33504 1.36249 3.46504L1.07499 3.94254C0.897491 4.23754 1.01999 4.56504 1.34499 4.67504C2.42249 5.03504 3.58499 5.03504 4.66249 4.67504C4.96499 4.57504 5.09749 4.21754 4.93249 3.94254L4.64499 3.46504C4.56999 3.33504 4.50499 3.10254 4.50499 2.95004V2.22754C4.50499 1.40254 3.82999 0.727539 3.00499 0.727539Z" fill="white" stroke="white" stroke-width="0.3" stroke-miterlimit="10" stroke-linecap="round"/>
<path d="M3.46751 0.799985C3.39001 0.777485 3.31001 0.759985 3.22751 0.749985C2.98751 0.719985 2.75751 0.737485 2.54251 0.799985C2.61501 0.614985 2.79501 0.484985 3.00501 0.484985C3.21501 0.484985 3.39501 0.614985 3.46751 0.799985Z" fill="white" stroke="white" stroke-width="0.3" stroke-miterlimit="10" stroke-linecap="round" stroke-linejoin="round"/>
<path d="M3.755 4.76501C3.755 5.17751 3.4175 5.51501 3.005 5.51501C2.8 5.51501 2.61 5.43001 2.475 5.29501C2.34 5.16001 2.255 4.97001 2.255 4.76501" fill="white"/>
<path d="M3.755 4.76501C3.755 5.17751 3.4175 5.51501 3.005 5.51501C2.8 5.51501 2.61 5.43001 2.475 5.29501C2.34 5.16001 2.255 4.97001 2.255 4.76501" stroke="white" stroke-width="0.3" stroke-miterlimit="10"/>
</svg>
