<svg width="18" height="18" viewBox="0 0 18 18" fill="none" xmlns="http://www.w3.org/2000/svg">
<path d="M9 12.5625C8.7 12.5625 8.4 12.54 8.115 12.4875C6.525 12.255 5.0775 11.34 4.1625 9.9825C3.525 9.0225 3.1875 7.905 3.1875 6.75C3.1875 3.5475 5.7975 0.9375 9 0.9375C12.2025 0.9375 14.8125 3.5475 14.8125 6.75C14.8125 7.905 14.475 9.0225 13.8375 9.9825C12.915 11.3475 11.4675 12.255 9.8625 12.495C9.6 12.54 9.3 12.5625 9 12.5625ZM9 2.0625C6.4125 2.0625 4.3125 4.1625 4.3125 6.75C4.3125 7.6875 4.5825 8.5875 5.0925 9.3525C5.835 10.4475 6.9975 11.1825 8.2875 11.37C8.7675 11.4525 9.24 11.4525 9.6825 11.37C10.995 11.1825 12.1575 10.44 12.9 9.34499C13.41 8.57999 13.68 7.67999 13.68 6.74249C13.6875 4.16249 11.5875 2.0625 9 2.0625Z" fill="white"/>
<path d="M4.85236 16.9425C4.74736 16.9425 4.64986 16.9275 4.54486 16.905C4.05736 16.7925 3.68236 16.4175 3.56986 15.93L3.30736 14.8275C3.29236 14.76 3.23986 14.7075 3.16486 14.685L1.92736 14.3925C1.46236 14.28 1.09486 13.935 0.967363 13.4775C0.839863 13.02 0.967363 12.525 1.30486 12.1875L4.22986 9.26248C4.34986 9.14248 4.51486 9.08248 4.67986 9.09748C4.84486 9.11248 4.99486 9.20247 5.09236 9.34497C5.83486 10.44 6.99736 11.1825 8.29486 11.37C8.77486 11.4525 9.24736 11.4525 9.68986 11.37C11.0024 11.1825 12.1649 10.44 12.9074 9.34497C12.9974 9.20247 13.1549 9.11248 13.3199 9.09748C13.4849 9.08248 13.6499 9.14248 13.7699 9.26248L16.6949 12.1875C17.0324 12.525 17.1599 13.02 17.0324 13.4775C16.9049 13.935 16.5299 14.2875 16.0724 14.3925L14.8349 14.685C14.7674 14.7 14.7149 14.7525 14.6924 14.8275L14.4299 15.93C14.3174 16.4175 13.9424 16.7925 13.4549 16.905C12.9674 17.025 12.4649 16.8525 12.1499 16.47L8.99986 12.8475L5.84986 16.4775C5.59486 16.7775 5.23486 16.9425 4.85236 16.9425ZM4.56736 10.5225L2.09986 12.99C2.03236 13.0575 2.03986 13.1325 2.05486 13.1775C2.06236 13.215 2.09986 13.29 2.18986 13.305L3.42736 13.5975C3.91486 13.71 4.28986 14.085 4.40236 14.5725L4.66486 15.675C4.68736 15.7725 4.76236 15.8025 4.80736 15.8175C4.85236 15.825 4.92736 15.8325 4.99486 15.7575L7.86736 12.45C6.59236 12.2025 5.42236 11.52 4.56736 10.5225ZM10.1324 12.4425L13.0049 15.7425C13.0724 15.825 13.1549 15.825 13.1999 15.81C13.2449 15.8025 13.3124 15.765 13.3424 15.6675L13.6049 14.565C13.7174 14.0775 14.0924 13.7025 14.5799 13.59L15.8174 13.2975C15.9074 13.275 15.9449 13.2075 15.9524 13.17C15.9674 13.1325 15.9749 13.05 15.9074 12.9825L13.4399 10.515C12.5774 11.5125 11.4149 12.195 10.1324 12.4425Z" fill="white"/>
<path d="M10.4176 9.66745C10.2226 9.66745 9.99011 9.61494 9.71261 9.44994L9.00011 9.02244L8.28761 9.44244C7.63511 9.83244 7.20761 9.60744 7.05011 9.49494C6.89261 9.38244 6.55511 9.04494 6.72761 8.30244L6.90761 7.52995L6.30761 6.97493C5.97761 6.64493 5.85761 6.24744 5.97011 5.88744C6.08261 5.52744 6.41261 5.27243 6.87761 5.19743L7.68011 5.06244L8.06261 4.22244C8.28011 3.79494 8.61761 3.55493 9.00011 3.55493C9.38261 3.55493 9.72761 3.80245 9.93761 4.22995L10.3801 5.11494L11.1226 5.20494C11.5801 5.27994 11.9101 5.53493 12.0301 5.89493C12.1426 6.25493 12.0226 6.65244 11.6926 6.98244L11.0701 7.60495L11.2651 8.30244C11.4376 9.04494 11.1001 9.38244 10.9426 9.49494C10.8601 9.56244 10.6801 9.66745 10.4176 9.66745ZM7.20761 6.29245L7.72511 6.80993C7.96511 7.04993 8.08511 7.45494 8.01011 7.78494L7.86761 8.38493L8.46761 8.03243C8.79011 7.84493 9.22511 7.84493 9.54011 8.03243L10.1401 8.38493L10.0051 7.78494C9.93011 7.44744 10.0426 7.04993 10.2826 6.80993L10.8001 6.29245L10.1476 6.17993C9.83261 6.12743 9.51761 5.89495 9.37511 5.60995L9.00011 4.87494L8.62511 5.62494C8.49011 5.90244 8.17511 6.14245 7.86011 6.19495L7.20761 6.29245Z" fill="white"/>
</svg>
