<svg width="33" height="33" viewBox="0 0 33 33" fill="none" xmlns="http://www.w3.org/2000/svg">
<path d="M21.9999 30.6669H4.66659C3.38659 30.6669 2.33325 29.6136 2.33325 28.3336V11.0002C2.33325 5.10691 5.43992 2.00024 11.3333 2.00024H21.9999C27.8933 2.00024 30.9999 5.10691 30.9999 11.0002V21.6669C30.9999 27.5602 27.8933 30.6669 21.9999 30.6669ZM11.3333 4.00024C6.55992 4.00024 4.33325 6.22691 4.33325 11.0002V28.3336C4.33325 28.5202 4.47992 28.6669 4.66659 28.6669H21.9999C26.7733 28.6669 28.9999 26.4402 28.9999 21.6669V11.0002C28.9999 6.22691 26.7733 4.00024 21.9999 4.00024H11.3333Z" fill="#E8032A"/>
<path d="M11.2663 24.0002C10.6396 24.0002 10.0663 23.7736 9.63959 23.3602C9.13292 22.8536 8.90623 22.1336 9.02623 21.3602L9.39956 18.7202C9.47956 18.1469 9.83958 17.4136 10.2529 17.0002L17.1729 10.0802C19.5462 7.7069 21.6129 8.77357 22.9196 10.0802C23.9462 11.1069 24.4129 12.1869 24.3063 13.2669C24.2263 14.1469 23.7596 14.9736 22.9196 15.8269L15.9996 22.7469C15.5862 23.1602 14.8662 23.5202 14.2796 23.6136L11.6396 23.9869C11.5196 23.9869 11.3863 24.0002 11.2663 24.0002ZM20.0396 10.6669C19.5462 10.6669 19.1063 10.9869 18.5996 11.4802L11.6796 18.4002C11.5729 18.5069 11.4129 18.8402 11.3863 18.9869L11.0129 21.6269C10.9996 21.7602 11.0129 21.8802 11.0662 21.9336C11.1196 21.9869 11.2396 22.0002 11.3729 21.9869L14.0129 21.6136C14.1729 21.5869 14.4929 21.4269 14.5996 21.3202L21.5196 14.4002C22.0263 13.8936 22.2929 13.4536 22.3329 13.0536C22.3729 12.6002 22.1063 12.0669 21.5196 11.4802C20.9329 10.9202 20.4662 10.6669 20.0396 10.6669Z" fill="#E8032A"/>
<path d="M21.2264 17.1067C21.133 17.1067 21.0397 17.0934 20.9597 17.0667C18.5464 16.3867 16.613 14.4667 15.933 12.04C15.7864 11.5067 16.093 10.96 16.6264 10.8C17.1597 10.6534 17.7064 10.96 17.853 11.4934C18.3464 13.24 19.7463 14.64 21.493 15.1334C22.0263 15.28 22.333 15.84 22.1864 16.3734C22.0664 16.8134 21.6664 17.1067 21.2264 17.1067Z" fill="#E8032A"/>
</svg>
